<?xml version="1.0" encoding="UTF-8" standalone="no"?>
<svg
   xmlns:ooo="http://xml.openoffice.org/svg/export"
   xmlns:dc="http://purl.org/dc/elements/1.1/"
   xmlns:cc="http://creativecommons.org/ns#"
   xmlns:rdf="http://www.w3.org/1999/02/22-rdf-syntax-ns#"
   xmlns:svg="http://www.w3.org/2000/svg"
   xmlns="http://www.w3.org/2000/svg"
   xmlns:sodipodi="http://sodipodi.sourceforge.net/DTD/sodipodi-0.dtd"
   xmlns:inkscape="http://www.inkscape.org/namespaces/inkscape"
   version="1.2"
   width="14.893117mm"
   height="48.219009mm"
   viewBox="0 0 1489.3117 4821.901"
   preserveAspectRatio="xMidYMid"
   fill-rule="evenodd"
   stroke-width="28.222"
   stroke-linejoin="round"
   xml:space="preserve"
   id="svg74"
   sodipodi:docname="Clef G .svg"
   inkscape:version="1.0.1 (3bc2e813f5, 2020-09-07)"><metadata
   id="metadata78"><rdf:RDF><cc:Work
       rdf:about=""><dc:format>image/svg+xml</dc:format><dc:type
         rdf:resource="http://purl.org/dc/dcmitype/StillImage" /></cc:Work></rdf:RDF></metadata><sodipodi:namedview
   pagecolor="#ffffff"
   bordercolor="#666666"
   borderopacity="1"
   objecttolerance="10"
   gridtolerance="10"
   guidetolerance="10"
   inkscape:pageopacity="0"
   inkscape:pageshadow="2"
   inkscape:window-width="1920"
   inkscape:window-height="1001"
   id="namedview76"
   showgrid="false"
   inkscape:zoom="4.3229167"
   inkscape:cx="26.539868"
   inkscape:cy="90.939623"
   inkscape:window-x="-9"
   inkscape:window-y="-9"
   inkscape:window-maximized="1"
   inkscape:current-layer="svg74"
   inkscape:document-rotation="0" />
 <defs
   class="ClipPathGroup"
   id="defs8">
  <clipPath
   id="presentation_clip_path"
   clipPathUnits="userSpaceOnUse">
   <rect
   x="0"
   y="0"
   width="2540"
   height="5080"
   id="rect2" />
  </clipPath>
  <clipPath
   id="presentation_clip_path_shrink"
   clipPathUnits="userSpaceOnUse">
   <rect
   x="2"
   y="5"
   width="2535"
   height="5070"
   id="rect5" />
  </clipPath>
 </defs>
 <defs
   class="TextShapeIndex"
   id="defs12">
  <g
   ooo:slide="id1"
   ooo:id-list="id3"
   id="g10" />
 </defs>
 <defs
   class="EmbeddedBulletChars"
   id="defs44">
  <g
   id="bullet-char-template-57356"
   transform="matrix(4.8828125e-4,0,0,-4.8828125e-4,0,0)">
   <path
   d="M 580,1141 1163,571 580,0 -4,571 Z"
   id="path14" />
  </g>
  <g
   id="bullet-char-template-57354"
   transform="matrix(4.8828125e-4,0,0,-4.8828125e-4,0,0)">
   <path
   d="M 8,1128 H 1137 V 0 H 8 Z"
   id="path17" />
  </g>
  <g
   id="bullet-char-template-10146"
   transform="matrix(4.8828125e-4,0,0,-4.8828125e-4,0,0)">
   <path
   d="M 174,0 602,739 174,1481 1456,739 Z M 1358,739 309,1346 659,739 Z"
   id="path20" />
  </g>
  <g
   id="bullet-char-template-10132"
   transform="matrix(4.8828125e-4,0,0,-4.8828125e-4,0,0)">
   <path
   d="M 2015,739 1276,0 H 717 l 543,543 H 174 v 393 h 1086 l -543,545 h 557 z"
   id="path23" />
  </g>
  <g
   id="bullet-char-template-10007"
   transform="matrix(4.8828125e-4,0,0,-4.8828125e-4,0,0)">
   <path
   d="m 0,-2 c -7,16 -16,29 -25,39 l 381,530 c -94,256 -141,385 -141,387 0,25 13,38 40,38 9,0 21,-2 34,-5 21,4 42,12 65,25 l 27,-13 111,-251 280,301 64,-25 24,25 c 21,-10 41,-24 62,-43 C 886,937 835,863 770,784 769,783 710,716 594,584 L 774,223 c 0,-27 -21,-55 -63,-84 l 16,-20 C 717,90 699,76 672,76 641,76 570,178 457,381 L 164,-76 c -22,-34 -53,-51 -92,-51 -42,0 -63,17 -64,51 -7,9 -10,24 -10,44 0,9 1,19 2,30 z"
   id="path26" />
  </g>
  <g
   id="bullet-char-template-10004"
   transform="matrix(4.8828125e-4,0,0,-4.8828125e-4,0,0)">
   <path
   d="M 285,-33 C 182,-33 111,30 74,156 52,228 41,333 41,471 c 0,78 14,145 41,201 34,71 87,106 158,106 53,0 88,-31 106,-94 l 23,-176 c 8,-64 28,-97 59,-98 l 735,706 c 11,11 33,17 66,17 42,0 63,-15 63,-46 V 965 c 0,-36 -10,-64 -30,-84 L 442,47 C 390,-6 338,-33 285,-33 Z"
   id="path29" />
  </g>
  <g
   id="bullet-char-template-9679"
   transform="matrix(4.8828125e-4,0,0,-4.8828125e-4,0,0)">
   <path
   d="M 813,0 C 632,0 489,54 383,161 276,268 223,411 223,592 c 0,181 53,324 160,431 106,107 249,161 430,161 179,0 323,-54 432,-161 108,-107 162,-251 162,-431 0,-180 -54,-324 -162,-431 C 1136,54 992,0 813,0 Z"
   id="path32" />
  </g>
  <g
   id="bullet-char-template-8226"
   transform="matrix(4.8828125e-4,0,0,-4.8828125e-4,0,0)">
   <path
   d="m 346,457 c -73,0 -137,26 -191,78 -54,51 -81,114 -81,188 0,73 27,136 81,188 54,52 118,78 191,78 73,0 134,-26 185,-79 51,-51 77,-114 77,-187 0,-75 -25,-137 -76,-188 -50,-52 -112,-78 -186,-78 z"
   id="path35" />
  </g>
  <g
   id="bullet-char-template-8211"
   transform="matrix(4.8828125e-4,0,0,-4.8828125e-4,0,0)">
   <path
   d="M -4,459 H 1135 V 606 H -4 Z"
   id="path38" />
  </g>
  <g
   id="bullet-char-template-61548"
   transform="matrix(4.8828125e-4,0,0,-4.8828125e-4,0,0)">
   <path
   d="m 173,740 c 0,163 58,303 173,419 116,115 255,173 419,173 163,0 302,-58 418,-173 116,-116 174,-256 174,-419 0,-163 -58,-303 -174,-418 C 1067,206 928,148 765,148 601,148 462,206 346,322 231,437 173,577 173,740 Z"
   id="path41" />
  </g>
 </defs>
 <g
   id="g49"
   transform="translate(-567.79931,-133.88911)">
  <g
   id="id2"
   class="Master_Slide">
   <g
   id="bg-id2"
   class="Background" />
   <g
   id="bo-id2"
   class="BackgroundObjects" />
  </g>
 </g>
 <g
   class="SlideGroup"
   id="g72"
   transform="translate(-567.79931,-133.88911)">
  <g
   id="g70">
   <g
   id="container-id1">
    <g
   id="id1"
   class="Slide"
   clip-path="url(#presentation_clip_path)">
     <g
   class="Page"
   id="g66">
      <g
   class="com.sun.star.drawing.ClosedBezierShape"
   id="g64">
       <g
   id="id3">
        <rect
   class="BoundingBox"
   stroke="none"
   fill="none"
   x="581"
   y="147"
   width="1464"
   height="4797"
   id="rect51" />
        <path
   fill="#000000"
   stroke="none"
   d="m 1351,4482 c 0,45 -1,95 -20,134 -20,40 -50,73 -83,96 -33,23 -71,40 -114,29 43,66 132,119 239,110 136,-50 201,-102 295,-252 12,-56 14,-104 13,-107 l -108,-659 c -220,23 -327,45 -516,-40 -93,-52 -206,-149 -276,-244 -118,-159 -181,-375 -197,-524 -13,-351 27,-651 312,-1012 153,-221 235,-314 299,-392 -53,-313 -64,-326 -68,-607 30,-443 75,-701 338,-866 132,34 206,286 250,611 13,225 33,352 -57,729 -53,176 -139,322 -307,521 l 73,442 c 30,6 63,11 92,11 91,0 180,31 259,91 79,59 145,144 190,248 45,103 78,232 78,351 0,119 -32,223 -78,326 -45,104 -110,188 -189,248 -40,30 -82,58 -125,79 l 100,669 c 2,141 -50,241 -121,319 -100,112 -156,133 -219,145 -138,8 -196,11 -319,-67 -33,-23 -117,-93 -136,-132 -15,-36 -47,-89 -54,-142 -7,-54 -5,-110 0,-117 0,-45 25,-89 44,-128 20,-39 47,-72 79,-95 33,-23 71,-35 109,-35 38,0 75,12 108,35 33,23 61,56 79,95 20,39 30,85 30,130 z M 1250,1022 c -15,168 -27,312 31,547 209,-249 246,-348 346,-666 39,-299 -17,-282 -65,-320 -50,-18 -119,-3 -211,132 -55,113 -63,127 -101,307 z m 393,2677 c 67,-30 118,-78 182,-203 22,-45 29,-142 37,-252 -5,-211 -212,-458 -375,-448 z m -238,-888 c -132,99 -172,132 -218,265 -5,143 -5,206 38,287 19,27 123,133 148,177 -67,0 -59,2 -125,-44 -89,-64 -214,-217 -224,-350 -10,-133 -2,-230 43,-333 45,-103 155,-238 234,-298 30,-23 45,-93 42,-41 l -62,-372 c -194,138 -431,508 -459,619 -140,470 20,675 65,751 156,162 189,192 302,254 153,29 154,31 368,6 z"
   id="path53" />
        <path
   fill="none"
   stroke="#000000"
   d="m 1351,4482 c 0,45 -1,95 -20,134 -20,40 -50,73 -83,96 -33,23 -71,40 -114,29 43,66 132,119 239,110 136,-50 201,-102 295,-252 12,-56 14,-104 13,-107 l -108,-659 c -220,23 -327,45 -516,-40 -93,-52 -206,-149 -276,-244 -118,-159 -181,-375 -197,-524 -13,-351 27,-651 312,-1012 153,-221 235,-314 299,-392 -53,-313 -64,-326 -68,-607 30,-443 75,-701 338,-866 132,34 206,286 250,611 13,225 33,352 -57,729 -53,176 -139,322 -307,521 l 73,442 c 30,6 63,11 92,11 91,0 180,31 259,91 79,59 145,144 190,248 45,103 78,232 78,351 0,119 -32,223 -78,326 -45,104 -110,188 -189,248 -40,30 -82,58 -125,79 l 100,669 c 2,141 -50,241 -121,319 -100,112 -156,133 -219,145 -138,8 -196,11 -319,-67 -33,-23 -117,-93 -136,-132 -15,-36 -47,-89 -54,-142 -7,-54 -5,-110 0,-117 0,-45 25,-89 44,-128 20,-39 47,-72 79,-95 33,-23 71,-35 109,-35 38,0 75,12 108,35 33,23 61,56 79,95 20,39 30,85 30,130 z"
   id="path55" />
        <path
   fill="none"
   stroke="#000000"
   d="m 1250,1022 c -15,168 -27,312 31,547 209,-249 246,-348 346,-666 39,-299 -17,-282 -65,-320 -50,-18 -119,-3 -211,132 -55,113 -63,127 -101,307 z"
   id="path57" />
        <path
   fill="none"
   stroke="#000000"
   d="m 1643,3699 c 67,-30 118,-78 182,-203 22,-45 29,-142 37,-252 -5,-211 -212,-458 -375,-448 z"
   id="path59" />
        <path
   fill="none"
   stroke="#000000"
   d="m 1405,2811 c -132,99 -172,132 -218,265 -5,143 -5,206 38,287 19,27 123,133 148,177 -67,0 -59,2 -125,-44 -89,-64 -214,-217 -224,-350 -10,-133 -2,-230 43,-333 45,-103 155,-238 234,-298 30,-23 45,-93 42,-41 l -62,-372 c -194,138 -431,508 -459,619 -140,470 20,675 65,751 156,162 189,192 302,254 153,29 154,31 368,6 z"
   id="path61" />
       </g>
      </g>
     </g>
    </g>
   </g>
  </g>
 </g>&lt;!-- This image is part of a music vectors set created that I, Jeramee Sikorski, created to make music lessons for my daughters. These images are licensed under the Creative Commons license CC0 as it exists on 16 March 2021.  They were initially offered to the public at https://publicdomainvectors.org/. (I also plan to make backup copies available at https://drjeramee.blogspot.com/).  They are FREE to use, so share the love.  While optional, I do ask that you please keep my name on the images or mention me in projects that make substantial use of the images in the set, so I can see the great work you do to make the world a more beautiful place, unless you’re a bigot or white supremacist, in which case you need to go make your own images. --&gt;</svg>
